<?xml version="1.0" standalone="no"?>
<!DOCTYPE svg PUBLIC "-//W3C//DTD SVG 20010904//EN"
 "http://www.w3.org/TR/2001/REC-SVG-20010904/DTD/svg10.dtd">
<svg version="1.0" xmlns="http://www.w3.org/2000/svg"
 width="300.000000pt" height="300.000000pt" viewBox="0 0 300.000000 300.000000"
 preserveAspectRatio="xMidYMid meet">
<metadata>
Created by potrace 1.14, written by Peter Selinger 2001-2017
</metadata>
<g transform="translate(0.000000,300.000000) scale(0.100000,-0.100000)"
fill="#000000" stroke="none">
<path d="M645 2936 c-42 -19 -71 -54 -84 -101 -7 -26 -11 -194 -11 -482 l0
-443 -102 0 c-165 0 -225 -28 -247 -115 -13 -50 -2 -90 38 -147 195 -275 207
-287 282 -302 24 -5 27 -11 32 -67 6 -70 21 -97 148 -269 47 -63 109 -148 138
-188 61 -83 96 -105 164 -106 54 0 91 22 122 75 18 31 20 52 20 247 0 116 1
212 2 212 1 0 9 -16 18 -35 11 -23 31 -41 61 -55 41 -20 56 -21 251 -18 177 3
212 6 233 20 14 10 95 114 180 232 85 118 158 215 162 215 4 1 7 -323 7 -720
1 -812 -5 -760 79 -800 33 -17 53 -20 88 -14 58 8 91 41 204 199 47 65 102
142 122 170 21 28 50 71 65 96 l28 45 3 865 c2 583 -1 881 -8 916 -8 37 -20
60 -46 85 l-35 34 -273 0 c-218 0 -278 -3 -300 -14 -23 -13 -137 -159 -231
-297 -16 -24 -32 -44 -35 -44 -3 0 -33 40 -67 88 -112 157 -498 678 -515 696
-31 30 -77 36 -273 36 -136 -1 -199 -5 -220 -14z m230 -85 c-198 -8 -213 -16
-220 -134 l-4 -62 12 67 c12 66 37 108 65 108 10 0 6 -8 -12 -25 -14 -13 -26
-32 -26 -42 0 -10 0 -222 0 -470 1 -404 -1 -456 -16 -478 -16 -25 -44 -34 -44
-15 0 7 -44 10 -120 8 -96 -1 -127 -5 -150 -20 -41 -24 -41 -70 1 -129 16 -24
42 -61 56 -82 14 -20 28 -35 30 -33 3 3 -7 20 -21 39 -27 35 -34 53 -16 42 6
-3 10 -2 10 4 0 15 -18 23 -22 9 -7 -19 -58 64 -57 92 l0 25 12 -25 c7 -14 19
-32 28 -40 25 -23 76 -95 60 -86 -9 6 -12 5 -10 -3 3 -7 9 -12 14 -12 14 0 45
-30 45 -43 0 -6 -7 -2 -15 8 -8 11 -15 15 -15 8 0 -6 8 -17 18 -24 11 -7 18
-23 17 -36 -1 -16 6 -27 22 -35 22 -10 32 -27 14 -27 -20 0 -66 48 -126 133
-35 51 -69 98 -75 105 -7 7 -14 30 -17 50 -4 31 0 41 22 62 25 24 35 25 163
30 l137 5 5 480 c5 442 6 483 23 508 10 16 28 32 40 37 12 5 90 8 172 7 l150
-1 -150 -5z m204 -52 c17 -17 58 -68 92 -115 34 -46 64 -83 66 -80 2 2 -33 52
-77 111 -45 59 -79 109 -76 112 2 3 47 -52 98 -122 147 -201 308 -419 321
-435 37 -46 197 -271 197 -277 -1 -5 -12 6 -25 22 -14 17 -25 25 -25 19 0 -5
14 -23 30 -39 17 -16 30 -32 30 -37 0 -24 -27 3 -95 97 -42 58 -79 105 -81
105 -8 0 3 -15 94 -137 72 -99 108 -135 99 -104 -1 5 7 17 18 25 14 11 15 14
4 10 -28 -9 -32 27 -6 55 13 14 34 42 47 61 14 19 69 95 123 168 72 98 107
137 132 148 26 11 80 14 232 12 l198 -2 -205 -6 c-178 -4 -209 -7 -232 -24
-36 -24 -36 -30 0 -14 20 10 69 12 202 7 l175 -5 -180 -1 c-202 -1 -183 5
-238 -88 -15 -26 -31 -45 -34 -41 -8 7 -33 -13 -33 -26 0 -6 8 -4 17 3 9 8 5
-3 -11 -23 -15 -21 -33 -36 -38 -35 -6 1 -13 -4 -16 -12 -3 -10 0 -11 9 -5 11
6 12 5 3 -7 -6 -8 -39 -52 -74 -99 -35 -47 -67 -87 -70 -90 -4 -3 -9 -13 -13
-22 -9 -26 -21 -22 -51 17 -15 20 -31 33 -36 30 -5 -3 -12 0 -16 6 -4 8 -3 9
4 5 7 -4 12 -5 12 -2 0 5 -113 165 -155 217 -11 14 -26 36 -34 47 -8 11 -19
20 -25 19 -6 -1 -10 5 -9 13 1 8 -44 78 -102 155 -57 77 -99 142 -94 146 7 4
-94 153 -132 194 -30 31 37 -71 79 -120 19 -23 44 -65 39 -65 -4 0 -30 33 -60
73 -73 99 -95 133 -78 123 9 -6 12 -5 9 4 -2 7 -18 21 -36 30 -17 10 -29 20
-25 24 11 11 21 7 52 -25z m-131 14 c-32 -2 -86 -2 -120 0 -35 2 -9 3 57 3 66
0 94 -1 63 -3z m1589 -465 c17 -31 18 -87 18 -873 0 -639 -3 -848 -12 -873
-13 -35 -39 -73 -181 -265 -74 -99 -109 -135 -134 -137 -15 0 -8 39 8 52 9 7
32 29 50 47 19 19 34 29 34 22 0 -11 3 -11 15 -1 8 7 15 17 15 22 0 6 -7 5
-15 -2 -26 -21 -17 0 22 53 20 27 39 45 41 38 5 -14 32 4 32 21 0 6 -7 5 -15
-2 -23 -19 -18 2 10 35 13 17 24 24 25 16 0 -11 3 -11 15 -1 8 7 15 17 15 22
0 6 -7 5 -15 -2 -8 -7 -15 -8 -15 -2 0 5 6 15 14 21 11 9 15 9 18 0 2 -7 15 5
29 27 l24 39 3 858 c2 754 0 861 -13 880 -15 21 -19 37 -10 37 2 0 12 -15 22
-32z m-28 -4 c21 -27 21 -32 21 -869 0 -723 -2 -848 -15 -878 -8 -20 -20 -39
-27 -43 -8 -5 -9 -2 -3 12 36 86 35 73 33 921 -2 653 -6 827 -16 831 -6 2 -10
8 -6 13 3 5 -2 12 -10 15 -9 3 -16 10 -16 15 0 17 19 9 39 -17z m-1467 -44
c-31 -23 -32 -53 -32 -692 0 -354 -4 -648 -8 -655 -6 -9 -6 279 -2 1327 l1 85
24 -30 c13 -16 21 -32 17 -35z m1454 6 c11 -16 14 -155 14 -820 0 -924 7 -857
-97 -997 -35 -49 -67 -89 -69 -89 -3 0 -2 10 1 23 5 15 0 12 -14 -11 -19 -29
-23 -31 -44 -21 -19 11 -20 10 -9 -3 14 -17 6 -51 -10 -42 -7 4 -6 9 1 14 9 5
8 10 -2 18 -12 10 -14 8 -12 -10 2 -13 5 -28 6 -34 2 -7 0 -12 -6 -13 -7 -1
-10 285 -11 837 0 460 -1 855 -2 877 -2 33 -6 41 -22 42 -17 2 -20 -5 -22 -50
0 -29 0 -65 1 -81 2 -18 -1 -26 -8 -21 -16 9 -15 -1589 0 -1633 14 -40 7 -66
-9 -35 -9 15 -12 234 -12 813 0 532 -4 799 -11 812 -8 15 -6 25 6 45 9 13 14
27 11 30 -3 4 -1 12 5 20 9 10 8 13 -1 13 -7 0 -19 -8 -26 -17 -12 -16 -15
-16 -23 -3 -6 8 -13 11 -18 7 -4 -5 -1 -12 7 -17 12 -7 10 -14 -10 -37 -43
-49 -43 -49 -36 -28 5 16 2 15 -14 -5 -17 -21 -21 -23 -30 -10 -8 12 -10 13
-10 1 0 -8 -3 -12 -6 -8 -13 13 22 43 49 42 15 -1 28 1 28 4 1 3 3 16 4 27 3
31 15 46 32 40 9 -4 17 1 20 14 3 11 9 20 13 20 9 0 32 51 25 58 -3 3 -5 1 -5
-5 0 -16 -59 -77 -67 -69 -3 3 1 14 10 24 10 10 17 27 17 36 0 12 5 16 15 12
8 -3 14 -2 14 2 -1 4 -1 60 0 124 l1 117 128 3 c184 4 183 4 198 -16z m-1324
-167 c62 -83 112 -158 110 -166 -2 -8 1 -12 7 -9 10 7 74 -64 65 -73 -3 -3 -9
1 -14 9 -6 8 -10 10 -10 4 0 -12 30 -41 37 -36 9 7 62 -70 57 -83 -3 -7 -1
-16 5 -20 6 -3 11 0 11 7 0 7 18 -12 39 -42 22 -30 36 -57 32 -60 -4 -3 -11
-23 -14 -45 -6 -37 -5 -38 8 -21 8 11 15 17 15 13 0 -10 -153 -222 -189 -262
-9 -11 -21 -29 -26 -40 -7 -19 -8 -19 -16 5 -7 22 -8 21 -6 -10 2 -29 6 -35
22 -33 11 1 14 0 7 -3 -10 -5 -10 -9 -1 -20 18 -22 -8 -17 -31 6 -42 42 -30
70 107 259 46 62 83 116 83 120 0 11 -41 74 -79 121 -20 25 -39 49 -44 55 -4
5 -34 46 -67 90 -32 44 -85 113 -117 154 -79 102 -92 124 -89 160 1 17 -4 37
-11 43 -12 10 -18 28 -9 28 3 0 56 -68 118 -151z m903 131 c3 -5 1 -10 -4 -10
-6 0 -11 5 -11 10 0 6 2 10 4 10 3 0 8 -4 11 -10z m-1020 -62 c3 -29 4 -334 3
-678 -3 -580 -4 -628 -21 -653 -17 -26 -57 -41 -41 -15 14 23 16 82 20 723 2
358 6 656 9 663 10 28 24 9 30 -40z m1005 28 c0 -3 -4 -8 -10 -11 -5 -3 -10
-1 -10 4 0 6 5 11 10 11 6 0 10 -2 10 -4z m-40 -46 c0 -5 -2 -10 -4 -10 -3 0
-8 5 -11 10 -3 6 -1 10 4 10 6 0 11 -4 11 -10z m-16 -18 c3 -5 -1 -9 -9 -9 -8
0 -12 4 -9 9 3 4 7 8 9 8 2 0 6 -4 9 -8z m76 -2 c0 -5 -7 -10 -15 -10 -8 0
-15 5 -15 10 0 6 7 10 15 10 8 0 15 -4 15 -10z m40 -105 c0 -8 -4 -15 -10 -15
-5 0 -10 7 -10 15 0 8 5 15 10 15 6 0 10 -7 10 -15z m-525 -45 c3 -5 1 -10 -4
-10 -6 0 -11 5 -11 10 0 6 2 10 4 10 3 0 8 -4 11 -10z m305 -5 c-7 -9 -15 -13
-19 -10 -3 3 1 10 9 15 21 14 24 12 10 -5z m-69 -68 c-13 -12 -20 -15 -15 -7
12 22 28 39 33 34 3 -3 -6 -15 -18 -27z m329 -5 c0 -4 -16 -23 -35 -42 -19
-19 -35 -39 -34 -44 0 -6 7 -1 16 12 18 26 38 29 47 7 3 -9 6 -371 6 -805 0
-481 4 -799 10 -815 5 -14 14 -25 20 -25 5 0 10 -7 10 -15 0 -28 -40 7 -50 45
-6 22 -10 339 -10 824 0 434 -1 791 -4 793 -2 2 -35 -40 -74 -94 -394 -544
-380 -525 -423 -544 -43 -17 -46 -5 -4 15 20 10 54 41 75 69 122 163 170 230
167 234 -3 2 -43 -49 -90 -114 -86 -119 -124 -161 -164 -182 -28 -14 -273 -15
-273 -1 0 6 50 10 130 10 122 0 180 10 180 32 0 5 -4 6 -10 3 -6 -3 -7 1 -4 9
8 21 -5 20 -23 -1 -13 -16 -13 -16 -4 3 6 12 8 24 5 26 -2 3 7 4 21 3 20 -3
31 5 50 33 18 27 22 38 12 44 -8 6 -7 8 5 6 10 -2 28 13 46 38 29 39 29 42 9
38 -13 -3 -16 -1 -7 2 8 4 24 11 34 17 29 15 17 -9 -65 -120 -40 -54 -65 -92
-56 -84 24 20 199 262 194 268 -3 2 -13 -9 -23 -26 -19 -32 -41 -43 -30 -16 3
8 1 15 -3 15 -5 0 -11 -5 -13 -12 -3 -7 -7 -5 -11 6 -4 9 -3 15 2 11 5 -3 13
0 17 6 5 8 9 8 14 -1 5 -8 16 0 34 26 15 23 22 41 16 44 -6 4 -2 14 10 25 11
10 20 14 20 9 0 -18 34 41 36 64 2 13 6 27 10 31 4 3 4 -5 1 -19 -3 -14 -2
-31 2 -39 6 -10 14 -5 31 19 12 17 25 29 27 26 3 -3 -7 -22 -22 -41 -15 -20
-25 -38 -22 -41 2 -2 17 15 33 38 16 24 32 45 37 46 4 2 7 8 7 14 0 6 -6 6
-15 -2 -26 -21 -16 4 15 40 16 19 29 29 30 22 0 -15 20 -6 20 9 0 6 -4 7 -10
4 -21 -13 -9 13 26 58 34 44 54 58 54 39z m-500 -8 c0 -8 -19 -13 -24 -6 -3 5
1 9 9 9 8 0 15 -2 15 -3z m-401 -151 c56 -75 100 -142 97 -150 -6 -14 -31 -49
-129 -181 -31 -42 -60 -87 -63 -99 -4 -13 -9 -23 -13 -23 -3 0 -6 133 -6 295
0 162 3 295 6 295 4 0 53 -61 108 -137z m779 42 c-49 -69 -87 -112 -88 -98 0
6 16 32 35 58 20 25 33 50 30 55 -3 5 0 12 6 16 8 4 9 3 5 -4 -4 -7 -3 -12 1
-12 5 0 14 9 21 21 7 12 16 19 19 16 2 -3 -10 -26 -29 -52z m-1355 -32 c-17
-26 -17 -27 0 -14 10 8 17 9 17 3 0 -16 -16 -23 -34 -16 -14 5 -14 8 2 30 24
33 36 30 15 -3z m-293 -18 c-7 -8 -19 -15 -27 -15 -13 0 -13 3 -3 15 7 8 19
15 27 15 13 0 13 -3 3 -15z m78 -12 c-10 -2 -28 -2 -40 0 -13 2 -5 4 17 4 22
1 32 -1 23 -4z m145 0 c-7 -2 -21 -2 -30 0 -10 3 -4 5 12 5 17 0 24 -2 18 -5z
m1307 -27 c0 -3 -4 -8 -10 -11 -5 -3 -10 -1 -10 4 0 6 5 11 10 11 6 0 10 -2
10 -4z m-380 -92 c0 -8 -4 -12 -10 -9 -5 3 -10 10 -10 16 0 5 5 9 10 9 6 0 10
-7 10 -16z m-845 -184 c-6 -20 -8 -21 -26 -4 -18 16 -18 18 -1 30 22 16 36 3
27 -26z m-72 0 c-9 -10 -63 -1 -63 9 0 4 16 5 36 3 20 -2 32 -8 27 -12z m51
-26 c3 -9 11 -12 18 -8 10 6 10 5 2 -7 -17 -21 -16 -131 1 -173 15 -36 30 -51
18 -18 -3 9 -3 14 2 10 4 -4 8 -18 9 -30 1 -13 7 -22 13 -21 6 1 17 -5 25 -14
11 -14 11 -16 -1 -9 -9 6 -12 5 -9 -5 3 -8 10 -13 16 -12 5 1 16 -5 24 -14 11
-14 11 -16 -1 -9 -9 6 -12 5 -9 -5 3 -8 10 -13 17 -12 14 4 45 -43 37 -55 -3
-6 2 -16 12 -23 15 -13 16 -12 3 4 -9 11 -10 17 -2 17 6 0 11 -3 11 -7 0 -5
18 -32 41 -61 22 -30 35 -51 30 -47 -6 3 -11 2 -11 -4 0 -5 5 -13 11 -16 6 -4
8 -13 5 -21 -3 -7 2 -18 12 -23 9 -5 14 -12 10 -16 -12 -12 -47 20 -95 88 -26
38 -73 101 -104 140 -96 124 -112 159 -117 251 -2 44 -9 87 -14 94 -7 8 -7 12
1 12 17 0 27 -37 30 -115 2 -56 8 -80 32 -122 17 -29 34 -55 40 -58 16 -10 10
5 -15 38 -31 42 -44 88 -49 167 -2 36 -7 73 -11 83 -5 10 -4 17 2 17 5 0 13
-7 16 -16z m1523 -1096 c-2 -13 -4 -3 -4 22 0 25 2 35 4 23 2 -13 2 -33 0 -45z
m104 -3 c-23 -31 -46 -53 -52 -50 -5 4 -9 1 -9 -6 0 -7 -2 -10 -5 -7 -8 8 6
39 15 33 5 -3 25 18 45 46 20 28 39 48 42 45 3 -3 -13 -30 -36 -61z"/>
<path d="M650 2239 c1 -327 -2 -414 -12 -420 -9 -6 -9 -9 -1 -9 6 0 15 5 18
10 9 15 11 821 2 827 -4 2 -7 -181 -7 -408z"/>
<path d="M380 1670 c6 -11 13 -20 16 -20 2 0 0 9 -6 20 -6 11 -13 20 -16 20
-2 0 0 -9 6 -20z"/>
<path d="M450 1533 c0 -5 9 -18 20 -28 11 -10 20 -14 20 -8 0 5 -9 18 -20 28
-11 10 -20 14 -20 8z"/>
<path d="M1240 2597 c0 -4 30 -47 66 -97 37 -50 64 -93 61 -96 -3 -3 -31 31
-63 75 -32 44 -60 78 -62 76 -3 -3 31 -53 118 -169 14 -18 56 -77 94 -130 38
-53 71 -94 74 -92 3 4 -37 62 -121 174 -6 7 -8 15 -5 18 3 3 59 -67 124 -155
64 -89 120 -159 122 -156 3 3 -3 15 -14 28 -11 12 -30 38 -44 57 -13 19 -28
40 -32 45 -5 6 -28 37 -52 70 -25 33 -63 85 -86 115 -22 30 -71 96 -107 145
-72 100 -73 101 -73 92z m160 -229 c0 -6 -7 -5 -15 2 -8 7 -15 17 -15 22 0 6
7 5 15 -2 8 -7 15 -17 15 -22z"/>
<path d="M1986 2312 c-22 -23 -84 -106 -126 -167 -19 -27 -38 -54 -42 -60 -68
-86 -88 -117 -75 -112 9 3 17 1 19 -4 3 -9 89 98 112 140 14 25 -6 3 -58 -67
-27 -35 -50 -61 -53 -58 -3 2 48 77 113 165 64 89 119 159 122 157 2 -3 -5
-18 -17 -34 -12 -17 -21 -34 -21 -38 0 -8 11 6 44 58 20 30 7 46 -18 20z"/>
<path d="M1910 2175 c-7 -9 -10 -18 -7 -21 3 -3 10 4 17 15 13 25 8 27 -10 6z"/>
<path d="M2437 483 c-4 -3 -7 -11 -7 -17 0 -6 5 -5 12 2 6 6 9 14 7 17 -3 3
-9 2 -12 -2z"/>
<path d="M2371 389 c-13 -17 -21 -33 -18 -35 3 -3 15 9 27 26 29 41 20 49 -9
9z"/>
<path d="M2273 264 c-29 -31 -35 -40 -18 -32 21 9 71 66 63 72 -1 1 -22 -17
-45 -40z"/>
<path d="M2041 1901 c-8 -5 -9 -11 -3 -15 5 -3 12 1 16 9 6 17 6 18 -13 6z"/>
<path d="M2475 629 c-4 -6 -5 -12 -2 -15 2 -3 7 2 10 11 7 17 1 20 -8 4z"/>
<path d="M2433 605 c-3 -9 -3 -18 -1 -21 3 -3 8 4 11 16 6 23 -1 27 -10 5z"/>
<path d="M2455 590 c-3 -5 -1 -10 4 -10 6 0 11 5 11 10 0 6 -2 10 -4 10 -3 0
-8 -4 -11 -10z"/>
<path d="M2420 561 c0 -6 4 -13 10 -16 6 -3 7 1 4 9 -7 18 -14 21 -14 7z"/>
<path d="M2367 482 c-4 -6 -15 -8 -24 -5 -12 5 -12 2 3 -15 16 -19 20 -20 27
-7 10 19 4 45 -6 27z"/>
<path d="M1080 2237 c0 -4 31 -47 68 -95 90 -115 115 -152 109 -158 -2 -3 -42
45 -87 106 -45 61 -84 109 -87 107 -2 -3 47 -71 109 -153 240 -317 278 -370
284 -392 4 -15 -2 -34 -20 -60 -14 -20 -42 -59 -61 -87 -43 -61 -43 -62 -78
-103 -15 -19 -27 -39 -27 -45 0 -6 14 8 31 31 17 24 34 41 36 38 3 -3 -5 -19
-17 -35 -12 -17 -19 -31 -17 -31 5 0 121 156 153 205 12 19 14 26 5 20 -11 -6
-13 -4 -6 11 21 50 17 63 -34 133 -52 72 -63 93 -36 71 23 -19 18 -6 -14 34
-16 20 -31 31 -33 24 -2 -6 -26 17 -52 51 -28 36 -45 66 -39 70 6 3 -29 59
-81 128 -96 128 -106 140 -106 130z m310 -419 c0 -6 -7 -5 -15 2 -8 7 -15 17
-15 22 0 6 7 5 15 -2 8 -7 15 -17 15 -22z m30 -318 c-53 -71 -71 -88 -49 -47
20 37 91 128 97 123 2 -3 -19 -37 -48 -76z"/>
<path d="M1299 1943 c6 -12 16 -25 21 -28 17 -11 11 5 -11 28 l-21 22 11 -22z"/>
<path d="M1465 1723 c15 -24 30 -43 32 -43 7 0 -31 61 -46 73 -8 7 -2 -7 14
-30z"/>
<path d="M1036 2194 c-3 -9 -6 -299 -6 -645 0 -416 -4 -637 -10 -650 -7 -13
-7 -19 -1 -19 6 0 13 10 16 23 4 18 13 1307 9 1307 -1 0 -5 -7 -8 -16z"/>
<path d="M2050 1805 c-7 -9 -11 -18 -8 -20 3 -3 11 1 18 10 7 9 11 18 8 20 -3
3 -11 -1 -18 -10z"/>
<path d="M1922 1673 c-12 -15 -22 -22 -22 -15 0 15 -20 6 -20 -9 0 -6 5 -7 10
-4 16 10 12 -7 -7 -27 -9 -10 -14 -21 -11 -23 3 -3 22 17 42 46 38 52 45 82 8
32z"/>
<path d="M1916 1619 c-21 -28 -36 -53 -33 -55 3 -4 37 41 70 93 19 31 -2 9
-37 -38z"/>
<path d="M740 1137 c0 -4 17 -30 38 -57 20 -27 48 -65 62 -84 14 -19 30 -34
35 -32 6 2 19 -4 29 -13 11 -9 7 1 -10 25 -16 23 -31 40 -33 38 -2 -2 2 -10 9
-19 7 -9 11 -18 8 -21 -3 -2 -31 30 -63 73 -66 89 -75 100 -75 90z"/>
<path d="M800 1091 c0 -5 7 -15 17 -22 15 -13 15 -12 4 9 -12 23 -21 28 -21
13z"/>
<path d="M897 920 c9 -16 21 -30 25 -30 5 0 -1 14 -14 30 -12 17 -23 30 -25
30 -2 0 4 -13 14 -30z"/>
</g>
</svg>
